<svg width="106" height="19" viewBox="0 0 106 19" fill="none" xmlns="http://www.w3.org/2000/svg">
<path d="M16.9861 7.82709C16.9556 7.73528 16.8788 7.66526 16.7831 7.64221L12.2228 6.53878L9.74226 2.63178C9.69018 2.54975 9.59859 2.5 9.5 2.5C9.40141 2.5 9.30982 2.54975 9.25774 2.63178L6.77722 6.53878L2.21694 7.64221C2.12121 7.66526 2.04445 7.73528 2.01391 7.82709C1.98353 7.9189 2.00364 8.0198 2.06713 8.09358L5.09438 11.6117L4.75653 16.2005C4.7494 16.2968 4.79377 16.3898 4.87338 16.4467C4.95356 16.5035 5.05757 16.5158 5.1486 16.4794L9.5 14.7467L13.8514 16.4794C13.8859 16.4933 13.9225 16.5 13.9588 16.5C14.0182 16.5 14.077 16.4818 14.1266 16.4466C14.2064 16.3898 14.2506 16.2968 14.2435 16.2003L13.9056 11.6115L16.9329 8.09344C16.9964 8.0198 17.0165 7.91904 16.9861 7.82709Z" fill="#FFBC58"/>
<path d="M38.9861 7.82709C38.9556 7.73528 38.8788 7.66526 38.7831 7.64221L34.2228 6.53878L31.7423 2.63178C31.6902 2.54975 31.5986 2.5 31.5 2.5C31.4014 2.5 31.3098 2.54975 31.2577 2.63178L28.7772 6.53878L24.2169 7.64221C24.1212 7.66526 24.0444 7.73528 24.0139 7.82709C23.9835 7.9189 24.0036 8.0198 24.0671 8.09358L27.0944 11.6117L26.7565 16.2005C26.7494 16.2968 26.7938 16.3898 26.8734 16.4467C26.9536 16.5035 27.0576 16.5158 27.1486 16.4794L31.5 14.7467L35.8514 16.4794C35.8859 16.4933 35.9225 16.5 35.9588 16.5C36.0182 16.5 36.077 16.4818 36.1266 16.4466C36.2064 16.3898 36.2506 16.2968 36.2435 16.2003L35.9056 11.6115L38.9329 8.09344C38.9964 8.0198 39.0165 7.91904 38.9861 7.82709Z" fill="#FFBC58"/>
<path d="M60.9861 7.82709C60.9556 7.73528 60.8788 7.66526 60.7831 7.64221L56.2228 6.53878L53.7423 2.63178C53.6902 2.54975 53.5986 2.5 53.5 2.5C53.4014 2.5 53.3098 2.54975 53.2577 2.63178L50.7772 6.53878L46.2169 7.64221C46.1212 7.66526 46.0444 7.73528 46.0139 7.82709C45.9835 7.9189 46.0036 8.0198 46.0671 8.09358L49.0944 11.6117L48.7565 16.2005C48.7494 16.2968 48.7938 16.3898 48.8734 16.4467C48.9536 16.5035 49.0576 16.5158 49.1486 16.4794L53.5 14.7467L57.8514 16.4794C57.8859 16.4933 57.9225 16.5 57.9588 16.5C58.0182 16.5 58.077 16.4818 58.1266 16.4466C58.2064 16.3898 58.2506 16.2968 58.2435 16.2003L57.9056 11.6115L60.9329 8.09344C60.9964 8.0198 61.0165 7.91904 60.9861 7.82709Z" fill="#FFBC58"/>
<path d="M82.9861 7.82709C82.9556 7.73528 82.8788 7.66526 82.7831 7.64221L78.2228 6.53878L75.7423 2.63178C75.6902 2.54975 75.5986 2.5 75.5 2.5C75.4014 2.5 75.3098 2.54975 75.2577 2.63178L72.7772 6.53878L68.2169 7.64221C68.1212 7.66526 68.0444 7.73528 68.0139 7.82709C67.9835 7.9189 68.0036 8.0198 68.0671 8.09358L71.0944 11.6117L70.7565 16.2005C70.7494 16.2968 70.7938 16.3898 70.8734 16.4467C70.9536 16.5035 71.0576 16.5158 71.1486 16.4794L75.5 14.7467L79.8514 16.4794C79.8859 16.4933 79.9225 16.5 79.9588 16.5C80.0182 16.5 80.077 16.4818 80.1266 16.4466C80.2064 16.3898 80.2506 16.2968 80.2435 16.2003L79.9056 11.6115L82.9329 8.09344C82.9964 8.0198 83.0165 7.91904 82.9861 7.82709Z" fill="#FFBC58"/>
<path d="M104.986 7.82709C104.956 7.73528 104.879 7.66526 104.783 7.64221L100.223 6.53878L97.7423 2.63178C97.6902 2.54975 97.5986 2.5 97.5 2.5C97.4014 2.5 97.3098 2.54975 97.2577 2.63178L94.7772 6.53878L90.2169 7.64221C90.1212 7.66526 90.0444 7.73528 90.0139 7.82709C89.9835 7.9189 90.0036 8.0198 90.0671 8.09358L93.0944 11.6117L92.7565 16.2005C92.7494 16.2968 92.7938 16.3898 92.8734 16.4467C92.9536 16.5035 93.0576 16.5158 93.1486 16.4794L97.5 14.7467L101.851 16.4794C101.886 16.4933 101.922 16.5 101.959 16.5C102.018 16.5 102.077 16.4818 102.127 16.4466C102.206 16.3898 102.251 16.2968 102.243 16.2003L101.906 11.6115L104.933 8.09344C104.996 8.0198 105.016 7.91904 104.986 7.82709Z" fill="#FFBC58"/>
</svg>
